<svg aria-hidden="true" style="width:0;height:0;position:absolute;overflow:hidden" xmlns="http://www.w3.org/2000/svg"><defs><symbol id="icon-burger" viewBox="0 0 43 32"><path d="M.592 3.556a2.073 2.073 0 0 1 2.074-2.074h37.333a2.075 2.075 0 0 1 0 4.148H2.666A2.073 2.073 0 0 1 .592 3.556zm0 12.51a2.073 2.073 0 0 1 2.074-2.074h37.333a2.075 2.075 0 0 1 0 4.148H2.666a2.075 2.075 0 0 1-2.074-2.074zm2.074 10.437a2.073 2.073 0 0 0-1.467 3.541c.389.389.917.607 1.467.607h37.333A2.075 2.075 0 1 0 40 26.503H2.667z"/></symbol><symbol id="icon-delivery" viewBox="0 0 32 32"><path d="m4.838 13.295 4.038 1.714c.457-.914.946-1.816 1.467-2.705s1.073-1.74 1.657-2.552l-3.01-.61-4.152 4.152zm5.867 3.086 5.067 5.067c1.448-.66 2.806-1.41 4.076-2.248s2.298-1.651 3.086-2.438c2.057-2.057 3.568-4.165 4.533-6.324s1.486-4.597 1.562-7.314c-2.718.076-5.156.597-7.314 1.562s-4.267 2.476-6.324 4.533c-.787.787-1.6 1.816-2.438 3.086s-1.587 2.629-2.248 4.076zm8.724-3.657c-.508-.508-.762-1.137-.762-1.886s.254-1.378.762-1.886 1.136-.762 1.886-.762c.749 0 1.378.254 1.886.762s.762 1.136.762 1.886c0 .749-.254 1.378-.762 1.886s-1.136.762-1.886.762-1.378-.254-1.886-.762zm-.572 14.59 4.152-4.152-.61-3.009c-.813.584-1.664 1.136-2.552 1.657s-1.791 1.009-2.705 1.467l1.714 4.038zM31.276.876c.229 3.454-.203 6.603-1.295 9.448s-2.895 5.524-5.41 8.038l-.152.152.838 4.191c.076.381.057.749-.057 1.105s-.311.673-.59.952l-6.514 6.552-3.238-7.543-6.476-6.476-7.543-3.238 6.552-6.514c.279-.279.597-.476.952-.59s.724-.133 1.105-.057l4.19.838c.025-.025.051-.044.076-.057s.051-.032.076-.057c2.514-2.514 5.194-4.324 8.038-5.429S27.822.648 31.276.877zM3.39 21.905c.889-.889 1.975-1.34 3.257-1.352s2.368.425 3.257 1.314c.889.889 1.327 1.974 1.314 3.257s-.463 2.368-1.352 3.257c-.66.66-1.683 1.206-3.067 1.638s-3.46.838-6.229 1.219c.381-2.768.781-4.851 1.2-6.248s.959-2.425 1.619-3.086zm1.6 1.638c-.356.381-.673.978-.952 1.791s-.521 1.854-.724 3.124c1.27-.203 2.311-.444 3.124-.724s1.41-.597 1.79-.952c.483-.432.73-.971.743-1.619s-.21-1.213-.667-1.695c-.483-.457-1.048-.679-1.695-.667s-1.187.26-1.619.743z"/></symbol><symbol id="icon-favicon" viewBox="0 0 32 32"><path fill="#ffe550" style="fill:var(--color1,#ffe550)" d="M13.557 6.456c1.012-1.982 3.84-1.982 4.852 0l1.281 2.51a2.726 2.726 0 0 0 1.999 1.453l2.775.441c2.198.35 3.073 3.049 1.499 4.625l-1.98 1.983a2.73 2.73 0 0 0-.765 2.356l.437 2.773c.347 2.2-1.942 3.868-3.925 2.859l-2.513-1.278a2.722 2.722 0 0 0-2.467 0l-2.513 1.278c-1.983 1.009-4.272-.659-3.925-2.859l.437-2.773a2.731 2.731 0 0 0-.765-2.356l-1.98-1.983c-1.574-1.576-.699-4.275 1.499-4.625l2.775-.441a2.728 2.728 0 0 0 1.999-1.453l1.281-2.51z"/><path fill="#bbf330" style="fill:var(--color3,#bbf330)" d="M16 32C7.163 32 0 24.837 0 16S7.163 0 16 0s16 7.163 16 16-7.163 16-16 16zm0-1.706c7.899 0 14.297-6.402 14.297-14.294S23.899 1.706 16 1.706 1.703 8.108 1.703 16 8.101 30.294 16 30.294z"/></symbol><symbol id="icon-left" viewBox="0 0 18 32"><path d="m.48 16.965 14.861 14.16a1.334 1.334 0 0 0 1.84 0l.016-.016a1.237 1.237 0 0 0 .382-.889 1.22 1.22 0 0 0-.382-.889L3.202 15.998 17.197 2.67a1.222 1.222 0 0 0 .282-1.373 1.231 1.231 0 0 0-.282-.405l-.016-.016a1.336 1.336 0 0 0-1.84 0L.48 15.036a1.331 1.331 0 0 0 0 1.93z"/></symbol><symbol id="icon-logo" viewBox="0 0 41 32"><path fill="#ffe550" style="fill:var(--color1,#ffe550)" d="M14.142 6.456c1.011-1.982 3.836-1.982 4.847 0l1.279 2.51a2.724 2.724 0 0 0 1.997 1.453l2.772.441c2.196.35 3.07 3.049 1.497 4.625l-1.978 1.983a2.733 2.733 0 0 0-.764 2.356l.437 2.773c.347 2.2-1.94 3.868-3.921 2.859l-2.51-1.278a2.718 2.718 0 0 0-2.465 0l-2.51 1.278c-1.981 1.009-4.267-.659-3.921-2.859l.437-2.773a2.734 2.734 0 0 0-.764-2.356l-1.978-1.983c-1.572-1.576-.699-4.276 1.497-4.625l2.772-.441a2.72 2.72 0 0 0 1.996-1.453l1.279-2.51z"/><path fill="#2c2c2c" style="fill:var(--color4,#2c2c2c)" d="m1.116 20.357-.021.005a31 31 0 0 1-.011.9c-.003.524-.004.868-.002 1.032 0 .157-.004.285-.01.384l.001.336a2.28 2.28 0 0 1-.019.296l-.018.206c-.014.13-.042.201-.084.211-.092.022-.235-.049-.431-.212-.197-.17-.31-.319-.341-.447s-.038-1.06-.024-2.798c.021-1.74-.025-2.884-.14-3.432a.421.421 0 0 1 .014-.273c.035-.165.219-.321.55-.467.338-.147.843-.3 1.514-.459.678-.161 1.216-.251 1.614-.27.405-.021.623.032.653.159.02.085-.026.159-.137.223s-.211.117-.298.16a22.45 22.45 0 0 1-.348.138c-.145.049-.279.096-.403.14-.125.037-.288.091-.488.16-.193.068-.371.133-.536.194-.166.054-.39.133-.671.237s-.463.169-.546.197c.012.02.023.051.033.093.079.333.122 1.13.129 2.392.443-.082.91-.204 1.402-.365.498-.163.804-.258.917-.284.268-.064.416-.039.443.075.052.22-.212.476-.791.77a8.607 8.607 0 0 1-1.95.697zM8.033 18.406a2.013 2.013 0 0 0-.277-.652c-.13-.201-.28-.334-.452-.398-.456.25-.786.728-.992 1.435-.2.698-.236 1.32-.107 1.865s.343.853.644.924c.485-.22.834-.668 1.047-1.347.218-.687.264-1.296.139-1.827zm-2.764.755c.117-.611.331-1.14.643-1.588.317-.456.684-.734 1.101-.833.424-.1.82-.003 1.187.291.366.287.61.689.733 1.206.12.51.121 1.063.001 1.66a3.784 3.784 0 0 1-.714 1.571c-.349.449-.767.731-1.254.847-.36.085-.7-.01-1.019-.286s-.538-.669-.659-1.179c-.122-.517-.128-1.08-.019-1.689zM12.833 17.269a2.013 2.013 0 0 0-.277-.652c-.13-.201-.28-.334-.452-.398-.456.25-.786.728-.992 1.435-.2.698-.236 1.32-.107 1.865s.343.853.644.924c.485-.22.834-.669 1.047-1.347.218-.687.264-1.296.139-1.827zm-2.763.756c.117-.611.331-1.14.643-1.588.317-.456.684-.734 1.101-.833.424-.1.82-.003 1.188.291.366.287.61.689.733 1.206.12.51.121 1.063.001 1.66a3.784 3.784 0 0 1-.714 1.571c-.349.449-.767.731-1.254.846-.36.085-.7-.01-1.019-.286s-.538-.669-.659-1.179c-.122-.517-.129-1.08-.019-1.689zM17.839 11.037c.113-.027.276.047.488.221.218.165.349.34.392.524s.079.729.107 1.635c.026.899.031 1.836.016 2.811-.02 2.188-.111 3.301-.273 3.34-.099.023-.223-.011-.371-.103-.143-.101-.226-.197-.247-.289s-.041-.282-.056-.57c-.525.872-1.045 1.369-1.561 1.491-.311.074-.627-.001-.948-.224-.314-.225-.507-.489-.579-.794-.104-.439-.11-.987-.019-1.644.096-.666.308-1.299.636-1.9s.742-.961 1.244-1.08.922.099 1.262.655c.005-1.586-.077-2.819-.248-3.699-.05-.212.002-.337.158-.374zm.068 5.491c-.09-.382-.234-.689-.43-.919-.189-.232-.375-.326-.559-.283-.304.072-.57.333-.799.784s-.381.943-.457 1.476c-.07.525-.063.965.021 1.319.03.127.1.219.211.275s.229.069.356.039c.275-.065.599-.351.972-.858.38-.509.612-1.057.696-1.645l.002-.135-.013-.053zM24.67 15.892c.137.581-.009 1.131-.438 1.651-.431.513-.985.85-1.663 1.01-.671.159-1.266.117-1.786-.127-.522-.25-.819-.531-.893-.843-.05-.212-.012-.334.115-.364.113-.027.376.091.788.352.156.09.352.163.589.22.244.054.486.053.726-.004a2.374 2.374 0 0 0 1.223-.693c.328-.347.457-.669.387-.966-.045-.191-.23-.405-.555-.643s-.673-.45-1.046-.638c-.367-.197-.714-.418-1.04-.662s-.51-.455-.552-.632-.051-.373-.027-.588c.024-.215.067-.379.13-.491.203-.37.565-.751 1.084-1.143.526-.394.987-.637 1.382-.731.205-.049.394-.022.567.079s.277.226.312.375c.017.071-.044.145-.182.223s-.351.188-.638.33a5.188 5.188 0 0 0-.739.422c-.739.504-1.074.901-1.005 1.191.037.156.553.493 1.548 1.013a5.31 5.31 0 0 1 1.087.763c.347.299.555.598.625.895zM27.104 16.426c.032.135.125.183.281.147.268-.064.576-.215.922-.454.352-.248.549-.377.591-.387.127-.03.207.022.238.157.049.205-.107.493-.467.862-.353.368-.703.593-1.049.674-.339.08-.643.055-.913-.076-.271-.138-.43-.306-.477-.504s-.064-.46-.051-.784c.011-.332.035-.767.072-1.307.042-.548.069-1 .083-1.354-.314.156-.527.248-.64.275s-.239-.003-.379-.09c-.134-.095-.214-.196-.239-.302-.04-.17.38-.441 1.262-.815a7.73 7.73 0 0 0-.178-1.607c-.05-.212-.005-.335.137-.369.12-.028.287.014.5.128.212.107.34.256.385.447s.065.542.058 1.052c.394-.131.711-.225.952-.281.424-.1.657-.058.701.126.025.106-.071.222-.287.348-.209.124-.664.348-1.363.67-.016.594-.052 1.28-.107 2.055-.057.769-.067 1.231-.03 1.387zM31.839 10.864c.318-.075.649.018.995.28.344.255.547.514.608.776.06.255.034.538-.079.849.11.086.174.168.192.246.047.198.081.549.103 1.052.029.502.051.829.065.983a3.374 3.374 0 0 1 .05.638c.014.184-.029.287-.128.311-.127.03-.259-.055-.396-.254a3.224 3.224 0 0 1-.344-.838c-.44.949-.928 1.487-1.464 1.614-.325.077-.679.015-1.062-.186-.378-.21-.602-.463-.672-.761-.1-.425-.069-.986.095-1.682.162-.704.432-1.358.811-1.964s.787-.96 1.225-1.064zm.929 1.754c-.156-.659-.364-.957-.626-.895-.275.065-.55.34-.823.823-.275.476-.481.992-.619 1.548s-.171.979-.103 1.269a.37.37 0 0 0 .219.262.61.61 0 0 0 .375.024c.332-.079.654-.39.965-.935.31-.552.469-1.169.48-1.852-.004-.111.041-.189.135-.234l-.002-.011z"/><path fill="#bbf330" style="fill:var(--color3,#bbf330)" d="M30.759 19.973a.917.917 0 0 0-.642.602c-1.906 5.65-7.244 9.719-13.535 9.719a14.228 14.228 0 0 1-9.841-3.935.91.91 0 0 0-.845-.232c-.639.158-.88.934-.406 1.392a15.92 15.92 0 0 0 11.092 4.48c7.078 0 13.081-4.605 15.182-10.986.206-.626-.368-1.199-1.006-1.041zM1.867 14.15a.906.906 0 0 0 .665-.725c1.211-6.664 7.039-11.72 14.051-11.72 4.559 0 8.617 2.137 11.232 5.464a.901.901 0 0 0 .923.328c.584-.144.847-.825.478-1.301-2.924-3.771-7.495-6.198-12.633-6.198C8.702-.002 2.152 5.709.84 13.223c-.104.592.445 1.07 1.027.926zM40.615 5.331c-3.777 7.241-5.435 2.465-10.752 5.271.532-8.406 6.163-3.291 10.752-5.271z"/></symbol><symbol id="icon-menu-close" viewBox="0 0 32 32"><path d="M19.141 16.123 29.817 5.455a2.196 2.196 0 0 0-3.098-3.095L16.043 12.918 5.301 2.184a2.202 2.202 0 0 0-2.983.115 2.193 2.193 0 0 0-.115 2.98l10.72 10.844L2.422 26.484a2.203 2.203 0 0 0-.767 1.582c-.012.302.039.604.15.885.11.282.278.538.492.751s.47.381.752.492a2.203 2.203 0 0 0 2.47-.615l10.479-10.471 10.413 10.405a2.202 2.202 0 0 0 2.983-.115 2.194 2.194 0 0 0 .115-2.979L19.14 16.124z"/></symbol><symbol id="icon-order" viewBox="0 0 24 32"><path d="M11.587.368c2.231 0 4.138.779 5.72 2.336s2.372 3.451 2.372 5.683c0 1.275-.276 2.477-.828 3.605s-1.33 2.084-2.336 2.869h-1.251v-1.839c.711-.564 1.257-1.251 1.637-2.06s.57-1.667.57-2.575c0-1.618-.576-2.992-1.729-4.12s-2.538-1.692-4.156-1.692c-1.618 0-3.004.564-4.156 1.692s-1.729 2.501-1.729 4.12c0 .907.19 1.766.57 2.575s.926 1.496 1.637 2.06v2.648c-1.373-.711-2.452-1.717-3.237-3.016S3.494 9.932 3.494 8.387c0-2.231.791-4.126 2.372-5.683S9.354.368 11.586.368zm-1.398 30.896a3.032 3.032 0 0 1-2.133-.883L.479 22.804l2.06-2.133c.343-.343.73-.607 1.159-.791s.877-.215 1.343-.092l2.869.662V8.459c0-1.03.356-1.9 1.067-2.611s1.582-1.067 2.612-1.067 1.9.356 2.611 1.067 1.067 1.582 1.067 2.611v6.326h.956c.123 0 .233.024.331.073s.208.098.331.147l5.444 2.648c.588.27 1.024.705 1.306 1.306s.362 1.22.239 1.857l-1.324 8.018c-.123.711-.466 1.293-1.03 1.747s-1.202.68-1.913.68h-9.416zm-.294-2.207h10.336l1.582-9.159-6.731-3.347h-2.023V8.459c0-.441-.135-.797-.405-1.067s-.625-.405-1.067-.405-.797.135-1.067.405c-.27.27-.405.625-.405 1.067v14.676l-5.664-1.214-.846.846 6.29 6.29zm10.335 0z"/></symbol><symbol id="icon-right" viewBox="0 0 18 32"><path d="M17.653 15.035 2.792.875a1.334 1.334 0 0 0-1.84 0L.936.891a1.222 1.222 0 0 0-.282 1.373c.065.153.162.291.282.405l13.995 13.333L.936 29.33a1.212 1.212 0 0 0-.381.889 1.236 1.236 0 0 0 .381.889l.016.016a1.334 1.334 0 0 0 1.84 0l14.861-14.16a1.331 1.331 0 0 0 0-1.93z"/></symbol><symbol id="icon-star" viewBox="0 0 34 32"><path fill="#ffe550" style="fill:var(--color1,#ffe550)" d="M15.421 1.037c.584-1.383 2.575-1.383 3.159 0l3.449 8.164a1.71 1.71 0 0 0 1.443 1.032l8.952.707c1.517.12 2.132 1.983.976 2.958l-6.821 5.752a1.67 1.67 0 0 0-.551 1.67l2.084 8.6c.353 1.457-1.257 2.609-2.556 1.828l-7.664-4.609a1.734 1.734 0 0 0-1.783 0l-7.664 4.609c-1.299.781-2.909-.371-2.556-1.828l2.084-8.6a1.67 1.67 0 0 0-.551-1.67L.601 13.898c-1.156-.975-.541-2.838.976-2.958l8.952-.707a1.71 1.71 0 0 0 1.443-1.032l3.449-8.164z"/></symbol><symbol id="icon-top-pointer" viewBox="0 0 32 32"><path d="M0 16c0 8.837 7.163 16 16 16s16-7.163 16-16S24.837 0 16 0 0 7.163 0 16zm29 0c0 7.18-5.82 13-13 13S3 23.18 3 16 8.82 3 16 3s13 5.82 13 13z"/><path d="m22.086 20.914 2.829-2.829-8.914-8.914-8.914 8.914 2.828 2.828 6.086-6.086z"/></symbol><symbol id="icon-invalid" viewBox="0 0 32 32"><path fill="none" stroke="#ff705d" style="stroke:var(--color1,#ff705d)" stroke-linejoin="round" stroke-linecap="round" stroke-width="2.285" d="M16 11.429v6.856m0 8a1.144 1.144 0 1 0-.003-2.286H16a1.144 1.144 0 0 0-.003 2.286H16z"/><path fill="none" stroke="#ff705d" style="stroke:var(--color1,#ff705d)" stroke-linejoin="round" stroke-linecap="round" stroke-width="2.285" d="M18.035 2.4a2.284 2.284 0 0 0-4.06-.012l-.006.013L1.396 27.542a2.285 2.285 0 0 0 2.034 3.314h25.144a2.285 2.285 0 0 0 2.028-3.325l.006.013L18.035 2.397z"/></symbol><symbol id="icon-required" viewBox="0 0 98 32"><path fill="#fe6060" style="fill:var(--color1,#fe6060)" d="M0 14.222C0 6.367 6.367 0 14.222 0h69.333c7.855 0 14.222 6.367 14.222 14.222S91.41 28.444 83.555 28.444h-28c-2.603-.028-4.063 1.213-6.667 3.556-2.603-2.343-4.063-3.583-6.667-3.556h-28c-7.855 0-14.222-6.367-14.222-14.222z"/><path fill="#faedeb" style="fill:var(--color2,#faedeb)" d="m12.402 12.073-1.762 5.112H9.575l2.22-5.898h.681l-.073.786zm1.475 5.112-1.766-5.112-.077-.786h.684l2.228 5.898h-1.07zm-.086-2.187v.806h-3.208v-.806h3.208zm2.764-4.035v6.222h-.981v-6.222h.981zm2.114 0v6.222h-.98v-6.222h.98zm4.391 6.222h-.98v-4.667c0-.354.07-.652.21-.895.143-.243.347-.428.612-.555.268-.127.585-.191.952-.191.216 0 .424.024.624.069a7.3 7.3 0 0 1 .628.174l-.151.794a4.635 4.635 0 0 0-.418-.122l-.039-.008a2.283 2.283 0 0 0-.546-.065h-.036.002c-.294 0-.511.068-.652.203-.138.132-.207.331-.207.596v4.667zm.879-4.383v.713h-2.532v-.713h2.532zm1.628 0v4.383h-.976v-4.383h.977zm3.023 4.464h-.033c-.304 0-.595-.058-.862-.164l.016.006a1.963 1.963 0 0 1-.664-.449l-.001-.001a2 2 0 0 1-.413-.662l-.005-.014a2.322 2.322 0 0 1-.146-.82v-.019.001-.162c0-.343.05-.654.15-.932s.239-.516.418-.713c.178-.2.389-.353.632-.458s.506-.158.79-.158c.313 0 .587.053.823.158s.429.254.583.446c.156.19.273.415.348.677.078.262.117.551.117.867v.417h-3.387v-.702h2.423v-.077a1.372 1.372 0 0 0-.109-.503l.003.009a.849.849 0 0 0-.285-.37l-.002-.002c-.13-.095-.302-.142-.519-.142a.892.892 0 0 0-.433.105.856.856 0 0 0-.312.296 1.542 1.542 0 0 0-.192.459l-.002.011a2.654 2.654 0 0 0-.065.612v.162c0 .191.026.37.077.535.055.162.133.304.235.425s.227.217.373.287c.146.068.312.101.498.101a1.348 1.348 0 0 0 1.106-.543l.514.498a1.862 1.862 0 0 1-.924.702 2.154 2.154 0 0 1-.711.118h-.044.002zm3.561-6.303v6.222h-.98v-6.222h.98zm3.742 5.315v-5.315h.981v6.222h-.888l-.093-.907zm-2.851-1.236v-.085c0-.332.039-.634.117-.907.078-.276.192-.512.34-.709.148-.2.329-.353.543-.458.213-.108.454-.162.721-.162.265 0 .497.051.697.154s.37.249.51.441c.14.189.252.415.337.68.083.262.143.553.178.875v.271c-.034.32-.097.611-.186.89l.009-.031a2.307 2.307 0 0 1-.337.673 1.466 1.466 0 0 1-.506.434l-.008.004a1.51 1.51 0 0 1-.701.154c-.264 0-.504-.056-.717-.166a1.61 1.61 0 0 1-.536-.462l-.003-.004a2.162 2.162 0 0 1-.336-.69l-.004-.015a3.113 3.113 0 0 1-.117-.859v-.029.001zm.976-.085v.085c0 .2.018.386.053.559.037.173.095.326.174.458.078.129.18.232.304.308a.907.907 0 0 0 .453.109.954.954 0 0 0 .547-.146.997.997 0 0 0 .334-.387l.003-.006c.083-.168.14-.354.17-.559v-.733a1.803 1.803 0 0 0-.105-.458l.004.012a1.193 1.193 0 0 0-.2-.363l.002.002a.846.846 0 0 0-.306-.241l-.005-.002a.959.959 0 0 0-.409-.09h-.026.001c-.178 0-.329.038-.453.113s-.227.18-.308.312a1.542 1.542 0 0 0-.174.462 2.614 2.614 0 0 0-.057.549v.015-.001zm6.336 1.041v-.006a.487.487 0 0 0-.074-.259l.001.002c-.049-.081-.142-.154-.28-.219a2.699 2.699 0 0 0-.6-.178 5.013 5.013 0 0 1-.676-.194l.036.011a2.036 2.036 0 0 1-.5-.267l.006.004a1.112 1.112 0 0 1-.317-.359l-.003-.006a1.002 1.002 0 0 1-.113-.465v-.022.001c0-.179.039-.347.117-.507s.19-.3.336-.421c.15-.123.327-.221.519-.284l.012-.003c.202-.067.435-.106.677-.106h.03-.002c.367 0 .681.062.943.186.265.121.467.288.608.498.14.208.21.443.21.705h-.976a.624.624 0 0 0-.089-.324.622.622 0 0 0-.256-.245l-.004-.002a.887.887 0 0 0-.438-.097.95.95 0 0 0-.417.081.575.575 0 0 0-.242.201l-.001.002a.51.51 0 0 0-.036.478l-.001-.003a.475.475 0 0 0 .145.157l.002.001c.068.046.159.089.276.129.119.041.267.08.445.117.335.071.622.161.863.272.243.108.429.248.559.421.13.171.194.386.194.648 0 .194-.041.373-.126.535a1.208 1.208 0 0 1-.353.415l-.003.002a1.77 1.77 0 0 1-.55.268l-.013.003a2.475 2.475 0 0 1-.696.097h-.035.002c-.397 0-.733-.071-1.009-.211a1.598 1.598 0 0 1-.628-.547 1.277 1.277 0 0 1-.21-.696v-.001h.943a.732.732 0 0 0 .15.433.806.806 0 0 0 .341.231c.137.046.279.069.425.069.176 0 .323-.023.441-.069a.646.646 0 0 0 .272-.194.463.463 0 0 0 .093-.279v-.005zm6.348.308v-2.091c0-.156-.028-.292-.085-.405s-.147-.205-.256-.262l-.003-.002a.885.885 0 0 0-.429-.093h-.024a.97.97 0 0 0-.396.084l.006-.002a.671.671 0 0 0-.27.217l-.001.002a.523.523 0 0 0-.097.305v.007h-.972c0-.172.041-.34.126-.502s.205-.307.364-.434.35-.227.571-.3c.213-.069.458-.109.712-.109h.035-.002c.329 0 .621.055.875.166.257.111.458.279.604.503.148.221.223.5.223.834v1.948c0 .2.014.379.04.539.03.156.072.293.126.409v.065h-1a1.643 1.643 0 0 1-.108-.392l-.001-.01a3.074 3.074 0 0 1-.036-.477zm.141-1.786.008.603h-.7c-.181 0-.34.018-.478.053a.992.992 0 0 0-.347.147l.003-.002a.634.634 0 0 0-.276.535v.012-.001c0 .116.027.223.081.32a.563.563 0 0 0 .235.223.823.823 0 0 0 .38.081c.2 0 .374-.04.523-.121.151-.084.27-.185.357-.304a.657.657 0 0 0 .137-.344l.316.433a1.496 1.496 0 0 1-.169.363l.004-.006a1.713 1.713 0 0 1-.308.365c-.27.241-.627.389-1.02.389h-.031.002a1.68 1.68 0 0 1-.766-.17 1.378 1.378 0 0 1-.524-.461l-.003-.005a1.199 1.199 0 0 1-.19-.651v-.018.001c0-.232.043-.438.13-.616a1.2 1.2 0 0 1 .389-.453c.173-.121.383-.213.632-.276.249-.065.532-.097.851-.097h.766zm2.84-.883v3.548h-.977v-4.383h.932l.044.834zm1.341-.863-.008.907a2.549 2.549 0 0 0-.397-.033 1.257 1.257 0 0 0-.441.073.824.824 0 0 0-.32.203c-.084.087-.148.192-.194.316s-.073.264-.081.417l-.223.017c0-.276.027-.531.081-.766.052-.234.136-.441.248-.629l-.005.009c.111-.178.249-.318.413-.417.16-.094.352-.15.557-.15h.024-.001a1.178 1.178 0 0 1 .349.053zm2.463 4.492h-.035c-.304 0-.594-.058-.86-.163l.016.006c-.26-.108-.48-.26-.663-.449l-.001-.001a1.983 1.983 0 0 1-.413-.662l-.005-.014a2.333 2.333 0 0 1-.146-.818v-.021.001-.162c0-.343.05-.654.15-.932s.239-.516.417-.713c.178-.2.389-.353.632-.458s.506-.158.79-.158c.313 0 .587.053.822.158s.43.254.584.446c.156.19.273.415.348.677.079.262.118.551.118.867v.417h-3.387v-.702h2.423v-.077a1.372 1.372 0 0 0-.109-.503l.003.009a.849.849 0 0 0-.285-.37l-.002-.002c-.13-.095-.302-.142-.519-.142a.899.899 0 0 0-.434.105.863.863 0 0 0-.312.296 1.546 1.546 0 0 0-.194.469 2.654 2.654 0 0 0-.065.612v.162c0 .191.026.37.077.535.054.162.133.304.235.425s.227.217.373.287c.146.068.312.101.498.101.235 0 .444-.047.628-.142s.343-.228.478-.401l.514.498a1.874 1.874 0 0 1-.924.702 2.154 2.154 0 0 1-.711.118h-.044.002zm5.561-3.629v3.548h-.976v-4.383h.932l.044.834zm1.341-.863-.008.907a2.56 2.56 0 0 0-.397-.033 1.257 1.257 0 0 0-.441.073.832.832 0 0 0-.513.513l-.002.006a1.41 1.41 0 0 0-.081.417l-.223.017c0-.276.027-.531.081-.766s.135-.441.243-.62c.111-.178.249-.318.414-.417a1.19 1.19 0 0 1 .928-.097zm2.463 4.492h-.034c-.304 0-.594-.058-.86-.163l.016.006a1.963 1.963 0 0 1-.664-.449l-.001-.001a2 2 0 0 1-.413-.662l-.005-.014a2.334 2.334 0 0 1-.146-.819v-.021.001-.162c0-.343.05-.654.15-.932s.239-.516.417-.713c.172-.194.382-.349.62-.454l.011-.005c.243-.105.507-.158.79-.158.313 0 .587.053.823.158s.43.254.583.446c.157.19.273.415.348.677.078.262.117.551.117.867v.417h-3.386v-.702h2.422v-.077a1.371 1.371 0 0 0-.108-.503l.003.009a.844.844 0 0 0-.286-.37l-.002-.002c-.129-.095-.302-.142-.519-.142a.892.892 0 0 0-.433.105.863.863 0 0 0-.312.296 1.518 1.518 0 0 0-.193.459l-.002.011a2.654 2.654 0 0 0-.065.612v.162c0 .191.025.37.077.535.054.162.132.304.235.425s.227.217.373.287c.146.068.312.101.498.101.235 0 .444-.047.628-.142s.343-.228.478-.401l.515.498a1.862 1.862 0 0 1-.924.702 2.156 2.156 0 0 1-.712.118h-.044.002zm5.185 1.605v-5.197l.114-.871h.871v6.068h-.985zm-2.847-3.833v-.085c0-.332.038-.634.113-.907a2.06 2.06 0 0 1 .341-.715l-.004.006a1.51 1.51 0 0 1 .543-.454 1.61 1.61 0 0 1 .737-.162c.27 0 .505.051.705.154.203.103.373.249.511.441.14.189.252.415.336.676s.145.553.183.875v.271c-.034.32-.097.611-.187.891l.009-.031a2.34 2.34 0 0 1-.341.679l.005-.007a1.518 1.518 0 0 1-.506.438l-.008.004c-.203.103-.44.154-.713.154s-.516-.056-.729-.166a1.583 1.583 0 0 1-.54-.462l-.003-.004a2.281 2.281 0 0 1-.333-.693l-.004-.016a3.249 3.249 0 0 1-.113-.861v-.028.001zm.976-.085v.085c0 .2.018.388.053.563.038.173.097.327.178.462.081.132.184.236.308.312s.274.113.45.113c.23 0 .417-.05.563-.15a.967.967 0 0 0 .341-.401c.081-.17.137-.357.17-.563v-.733a2.05 2.05 0 0 0-.106-.46l.004.014a1.154 1.154 0 0 0-.204-.366l.001.002a.826.826 0 0 0-.311-.241l-.005-.002a1.031 1.031 0 0 0-.446-.089h-.025a.867.867 0 0 0-.433.115l.004-.002a.913.913 0 0 0-.309.312l-.002.004a1.504 1.504 0 0 0-.172.452l-.002.01a2.612 2.612 0 0 0-.057.548v.016-.001zm6.538 1.199v-3.351h.981v4.383h-.924l-.057-1.033zm.138-.911.328-.008c0 .295-.033.566-.097.814-.065.246-.165.46-.3.644-.136.18-.31.324-.51.422l-.008.004c-.211.1-.463.15-.758.15-.213 0-.409-.031-.587-.093a1.207 1.207 0 0 1-.462-.288 1.3 1.3 0 0 1-.293-.497l-.003-.009a2.316 2.316 0 0 1-.105-.745v-2.832h.977v2.84c0 .16.018.293.056.401a.674.674 0 0 0 .154.255c.065.065.14.111.227.138s.178.041.276.041c.278 0 .497-.054.656-.162a.894.894 0 0 0 .342-.439l.002-.006a1.75 1.75 0 0 0 .105-.628zm2.888-2.439v4.383h-.98v-4.383h.98zm-1.045-1.15a.5.5 0 0 1 .146-.369c.1-.1.238-.15.414-.15.172 0 .309.05.409.15a.49.49 0 0 1 .15.354v.016-.001.013a.49.49 0 0 1-.15.352.562.562 0 0 1-.409.146.571.571 0 0 1-.414-.146.495.495 0 0 1-.146-.351v-.014.001zm3.095 1.985v3.548h-.977v-4.383h.932l.044.834zm1.341-.863-.008.907a2.549 2.549 0 0 0-.397-.033h-.001a1.257 1.257 0 0 0-.441.073.824.824 0 0 0-.32.203.879.879 0 0 0-.192.31l-.002.006a1.41 1.41 0 0 0-.081.417l-.223.017c0-.276.027-.531.081-.766s.135-.441.243-.62c.111-.178.248-.318.413-.417.168-.1.361-.15.58-.15a1.178 1.178 0 0 1 .348.053zm2.463 4.492h-.034c-.304 0-.594-.058-.861-.163l.016.006a1.963 1.963 0 0 1-.664-.449l-.001-.001a2.015 2.015 0 0 1-.413-.662l-.005-.014a2.334 2.334 0 0 1-.146-.819v-.021.001-.162c0-.343.05-.654.15-.932s.239-.516.417-.713c.172-.194.383-.349.621-.454l.011-.005a1.97 1.97 0 0 1 .79-.158c.313 0 .587.053.822.158s.43.254.584.446c.156.19.273.415.348.677.078.262.117.551.117.867v.417h-3.387v-.702h2.423v-.077a1.352 1.352 0 0 0-.109-.503l.003.009a.849.849 0 0 0-.285-.37l-.002-.002c-.13-.095-.303-.142-.519-.142a.899.899 0 0 0-.434.105.856.856 0 0 0-.31.293l-.002.004a1.542 1.542 0 0 0-.192.459l-.002.011a2.545 2.545 0 0 0-.065.583v.03-.002.162c0 .191.026.37.077.535.054.162.133.304.235.425s.227.217.373.287c.146.068.312.101.498.101.235 0 .444-.047.628-.142s.343-.228.478-.401l.514.498a1.874 1.874 0 0 1-.924.702 2.15 2.15 0 0 1-.711.118h-.044.002zm5.189-.988v-5.315h.98v6.222h-.887l-.093-.907zm-2.852-1.236v-.085c0-.332.039-.634.117-.907.079-.276.192-.512.341-.709.148-.2.329-.353.543-.458a1.57 1.57 0 0 1 .721-.162c.265 0 .497.051.697.154s.37.249.511.441c.14.189.252.415.336.68.084.262.143.553.178.875v.271c-.035.32-.097.611-.187.89l.009-.031a2.33 2.33 0 0 1-.336.673 1.47 1.47 0 0 1-.507.434l-.008.004c-.2.103-.433.154-.7.154a1.54 1.54 0 0 1-.717-.166 1.6 1.6 0 0 1-.536-.462l-.003-.004a2.164 2.164 0 0 1-.337-.69l-.004-.015a3.12 3.12 0 0 1-.117-.86v-.028.001zm.977-.085v.085c0 .2.017.386.053.559.037.173.095.326.174.458.079.129.18.232.304.308a.908.908 0 0 0 .454.109c.221 0 .404-.049.547-.146s.255-.229.336-.393c.084-.168.14-.354.17-.559v-.733a1.813 1.813 0 0 0-.105-.458l.004.012a1.193 1.193 0 0 0-.2-.363l.002.002a.835.835 0 0 0-.306-.241l-.005-.002a.959.959 0 0 0-.409-.09h-.026.001c-.178 0-.329.038-.453.113s-.227.18-.308.312a1.504 1.504 0 0 0-.172.452l-.002.01a2.623 2.623 0 0 0-.056.549v.015-.001z"/></symbol></defs></svg>