<svg aria-hidden="true" style="position: absolute; width: 0; height: 0; overflow: hidden;" version="1.1" xmlns="http://www.w3.org/2000/svg" xmlns:xlink="http://www.w3.org/1999/xlink">
<defs>
<symbol id="icon-burger" viewBox="0 0 43 32">
<path d="M0.592 3.556c0-0.55 0.219-1.078 0.607-1.467s0.917-0.607 1.467-0.607h37.333c0.55 0 1.078 0.219 1.466 0.607s0.607 0.917 0.607 1.467c0 0.55-0.218 1.078-0.607 1.467s-0.916 0.607-1.466 0.607h-37.333c-0.55 0-1.078-0.219-1.467-0.607s-0.607-0.917-0.607-1.467zM0.592 16.066c0-0.55 0.219-1.078 0.607-1.467s0.917-0.607 1.467-0.607h37.333c0.55 0 1.078 0.219 1.466 0.607s0.607 0.916 0.607 1.467c0 0.55-0.218 1.078-0.607 1.467s-0.916 0.607-1.466 0.607h-37.333c-0.55 0-1.078-0.218-1.467-0.607s-0.607-0.916-0.607-1.467zM2.666 26.503c-0.55 0-1.078 0.219-1.467 0.607s-0.607 0.917-0.607 1.467 0.219 1.078 0.607 1.467c0.389 0.389 0.917 0.607 1.467 0.607h37.333c0.55 0 1.078-0.218 1.467-0.607s0.607-0.917 0.607-1.467c0-0.55-0.218-1.078-0.607-1.467s-0.916-0.607-1.466-0.607h-37.333z"></path>
</symbol>
<symbol id="icon-delivery" viewBox="0 0 32 32">
<path d="M4.838 13.295l4.038 1.714c0.457-0.914 0.946-1.816 1.467-2.705s1.073-1.74 1.657-2.552l-3.010-0.61-4.152 4.152zM10.705 16.381l5.067 5.067c1.448-0.66 2.806-1.41 4.076-2.248s2.298-1.651 3.086-2.438c2.057-2.057 3.568-4.165 4.533-6.324s1.486-4.597 1.562-7.314c-2.718 0.076-5.156 0.597-7.314 1.562s-4.267 2.476-6.324 4.533c-0.787 0.787-1.6 1.816-2.438 3.086s-1.587 2.629-2.248 4.076zM19.429 12.724c-0.508-0.508-0.762-1.137-0.762-1.886s0.254-1.378 0.762-1.886 1.136-0.762 1.886-0.762c0.749 0 1.378 0.254 1.886 0.762s0.762 1.136 0.762 1.886c0 0.749-0.254 1.378-0.762 1.886s-1.136 0.762-1.886 0.762-1.378-0.254-1.886-0.762zM18.857 27.314l4.152-4.152-0.61-3.009c-0.813 0.584-1.664 1.136-2.552 1.657s-1.791 1.009-2.705 1.467l1.714 4.038zM31.276 0.876c0.229 3.454-0.203 6.603-1.295 9.448s-2.895 5.524-5.41 8.038l-0.152 0.152 0.838 4.191c0.076 0.381 0.057 0.749-0.057 1.105s-0.311 0.673-0.59 0.952l-6.514 6.552-3.238-7.543-6.476-6.476-7.543-3.238 6.552-6.514c0.279-0.279 0.597-0.476 0.952-0.59s0.724-0.133 1.105-0.057l4.19 0.838c0.025-0.025 0.051-0.044 0.076-0.057s0.051-0.032 0.076-0.057c2.514-2.514 5.194-4.324 8.038-5.429s5.994-1.543 9.448-1.314zM3.39 21.905c0.889-0.889 1.975-1.34 3.257-1.352s2.368 0.425 3.257 1.314c0.889 0.889 1.327 1.974 1.314 3.257s-0.463 2.368-1.352 3.257c-0.66 0.66-1.683 1.206-3.067 1.638s-3.46 0.838-6.229 1.219c0.381-2.768 0.781-4.851 1.2-6.248s0.959-2.425 1.619-3.086zM4.99 23.543c-0.356 0.381-0.673 0.978-0.952 1.791s-0.521 1.854-0.724 3.124c1.27-0.203 2.311-0.444 3.124-0.724s1.41-0.597 1.79-0.952c0.483-0.432 0.73-0.971 0.743-1.619s-0.21-1.213-0.667-1.695c-0.483-0.457-1.048-0.679-1.695-0.667s-1.187 0.26-1.619 0.743z"></path>
</symbol>
<symbol id="icon-favicon" viewBox="0 0 32 32">
<path fill="#ffe550" style="fill: var(--color1, #ffe550)" d="M13.557 6.456c1.012-1.982 3.84-1.982 4.852 0l1.281 2.51c0.396 0.776 1.139 1.316 1.999 1.453l2.775 0.441c2.198 0.35 3.073 3.049 1.499 4.625l-1.98 1.983c-0.617 0.617-0.901 1.493-0.765 2.356l0.437 2.773c0.347 2.2-1.942 3.868-3.925 2.859l-2.513-1.278c-0.775-0.394-1.692-0.394-2.467 0l-2.513 1.278c-1.983 1.009-4.272-0.659-3.925-2.859l0.437-2.773c0.136-0.863-0.148-1.738-0.765-2.356l-1.98-1.983c-1.574-1.576-0.699-4.275 1.499-4.625l2.775-0.441c0.86-0.137 1.602-0.677 1.999-1.453l1.281-2.51z"></path>
<path fill="#bbf330" style="fill: var(--color3, #bbf330)" d="M16 32c-8.837 0-16-7.163-16-16s7.163-16 16-16c8.837 0 16 7.163 16 16s-7.163 16-16 16zM16 30.294c7.899 0 14.297-6.402 14.297-14.294s-6.398-14.294-14.297-14.294-14.297 6.402-14.297 14.294c0 7.892 6.398 14.294 14.297 14.294z"></path>
</symbol>
<symbol id="icon-left" viewBox="0 0 18 32">
<path d="M0.48 16.965l14.861 14.16c0.248 0.236 0.577 0.368 0.92 0.368s0.672-0.132 0.92-0.368l0.016-0.016c0.121-0.115 0.217-0.252 0.282-0.405s0.1-0.317 0.1-0.484-0.034-0.331-0.1-0.484c-0.066-0.153-0.162-0.291-0.282-0.405l-13.995-13.333 13.995-13.328c0.121-0.115 0.217-0.253 0.282-0.405s0.1-0.318 0.1-0.484-0.034-0.331-0.1-0.484c-0.066-0.153-0.162-0.291-0.282-0.405l-0.016-0.016c-0.248-0.236-0.578-0.368-0.92-0.368s-0.672 0.132-0.92 0.368l-14.861 14.16c-0.131 0.125-0.235 0.274-0.306 0.44s-0.108 0.345-0.108 0.525c0 0.181 0.037 0.359 0.108 0.525s0.175 0.316 0.306 0.44z"></path>
</symbol>
<symbol id="icon-logo" viewBox="0 0 41 32">
<path fill="#ffe550" style="fill: var(--color1, #ffe550)" d="M14.142 6.456c1.011-1.982 3.836-1.982 4.847 0l1.279 2.51c0.396 0.776 1.138 1.316 1.997 1.453l2.772 0.441c2.196 0.35 3.070 3.049 1.497 4.625l-1.978 1.983c-0.616 0.617-0.9 1.493-0.764 2.356l0.437 2.773c0.347 2.2-1.94 3.868-3.921 2.859l-2.51-1.278c-0.775-0.394-1.69-0.394-2.465 0l-2.51 1.278c-1.981 1.009-4.267-0.659-3.921-2.859l0.437-2.773c0.136-0.863-0.148-1.738-0.764-2.356l-1.978-1.983c-1.572-1.576-0.699-4.276 1.497-4.625l2.772-0.441c0.859-0.137 1.601-0.677 1.996-1.453l1.279-2.51z"></path>
<path fill="#2c2c2c" style="fill: var(--color4, #2c2c2c)" d="M1.116 20.357l-0.021 0.005c0.003 0.074-0.001 0.374-0.011 0.9-0.003 0.524-0.004 0.868-0.002 1.032-0 0.157-0.004 0.285-0.010 0.384 0.001 0.097 0.001 0.209 0.001 0.336-0.001 0.12-0.008 0.219-0.019 0.296-0.006 0.069-0.012 0.137-0.018 0.206-0.014 0.13-0.042 0.201-0.084 0.211-0.092 0.022-0.235-0.049-0.431-0.212-0.197-0.17-0.31-0.319-0.341-0.447s-0.038-1.060-0.024-2.798c0.021-1.74-0.025-2.884-0.14-3.432-0.025-0.106-0.020-0.197 0.014-0.273 0.035-0.165 0.219-0.321 0.55-0.467 0.338-0.147 0.843-0.3 1.514-0.459 0.678-0.161 1.216-0.251 1.614-0.27 0.405-0.021 0.623 0.032 0.653 0.159 0.020 0.085-0.026 0.159-0.137 0.223s-0.211 0.117-0.298 0.16c-0.088 0.036-0.204 0.082-0.348 0.138-0.145 0.049-0.279 0.096-0.403 0.14-0.125 0.037-0.288 0.091-0.488 0.16-0.193 0.068-0.371 0.133-0.536 0.194-0.166 0.054-0.39 0.133-0.671 0.237s-0.463 0.169-0.546 0.197c0.012 0.020 0.023 0.051 0.033 0.093 0.079 0.333 0.122 1.13 0.129 2.392 0.443-0.082 0.91-0.204 1.402-0.365 0.498-0.163 0.804-0.258 0.917-0.284 0.268-0.064 0.416-0.039 0.443 0.075 0.052 0.22-0.212 0.476-0.791 0.77-0.572 0.293-1.222 0.525-1.95 0.697z"></path>
<path fill="#2c2c2c" style="fill: var(--color4, #2c2c2c)" d="M8.033 18.406c-0.057-0.241-0.149-0.458-0.277-0.652-0.13-0.201-0.28-0.334-0.452-0.398-0.456 0.25-0.786 0.728-0.992 1.435-0.2 0.698-0.236 1.32-0.107 1.865s0.343 0.853 0.644 0.924c0.485-0.22 0.834-0.668 1.047-1.347 0.218-0.687 0.264-1.296 0.139-1.827zM5.269 19.161c0.117-0.611 0.331-1.14 0.643-1.588 0.317-0.456 0.684-0.734 1.101-0.833 0.424-0.1 0.82-0.003 1.187 0.291 0.366 0.287 0.61 0.689 0.733 1.206 0.12 0.51 0.121 1.063 0.001 1.66-0.122 0.59-0.36 1.113-0.714 1.571-0.349 0.449-0.767 0.731-1.254 0.847-0.36 0.085-0.7-0.010-1.019-0.286s-0.538-0.669-0.659-1.179c-0.122-0.517-0.128-1.080-0.019-1.689z"></path>
<path fill="#2c2c2c" style="fill: var(--color4, #2c2c2c)" d="M12.833 17.269c-0.057-0.241-0.149-0.458-0.277-0.652-0.13-0.201-0.28-0.334-0.452-0.398-0.456 0.25-0.786 0.728-0.992 1.435-0.2 0.698-0.236 1.32-0.107 1.865s0.343 0.853 0.644 0.924c0.485-0.22 0.834-0.669 1.047-1.347 0.218-0.687 0.264-1.296 0.139-1.827zM10.070 18.025c0.117-0.611 0.331-1.14 0.643-1.588 0.317-0.456 0.684-0.734 1.101-0.833 0.424-0.1 0.82-0.003 1.188 0.291 0.366 0.287 0.61 0.689 0.733 1.206 0.12 0.51 0.121 1.063 0.001 1.66-0.122 0.59-0.36 1.113-0.714 1.571-0.349 0.449-0.767 0.731-1.254 0.846-0.36 0.085-0.7-0.010-1.019-0.286s-0.538-0.669-0.659-1.179c-0.122-0.517-0.129-1.080-0.019-1.689z"></path>
<path fill="#2c2c2c" style="fill: var(--color4, #2c2c2c)" d="M17.839 11.037c0.113-0.027 0.276 0.047 0.488 0.221 0.218 0.165 0.349 0.34 0.392 0.524s0.079 0.729 0.107 1.635c0.026 0.899 0.031 1.836 0.016 2.811-0.020 2.188-0.111 3.301-0.273 3.34-0.099 0.023-0.223-0.011-0.371-0.103-0.143-0.101-0.226-0.197-0.247-0.289s-0.041-0.282-0.056-0.57c-0.525 0.872-1.045 1.369-1.561 1.491-0.311 0.074-0.627-0.001-0.948-0.224-0.314-0.225-0.507-0.489-0.579-0.794-0.104-0.439-0.11-0.987-0.019-1.644 0.096-0.666 0.308-1.299 0.636-1.9s0.742-0.961 1.244-1.080 0.922 0.099 1.262 0.655c0.005-1.586-0.077-2.819-0.248-3.699-0.050-0.212 0.002-0.337 0.158-0.374zM17.907 16.528c-0.090-0.382-0.234-0.689-0.43-0.919-0.189-0.232-0.375-0.326-0.559-0.283-0.304 0.072-0.57 0.333-0.799 0.784s-0.381 0.943-0.457 1.476c-0.070 0.525-0.063 0.965 0.021 1.319 0.030 0.127 0.1 0.219 0.211 0.275s0.229 0.069 0.356 0.039c0.275-0.065 0.599-0.351 0.972-0.858 0.38-0.509 0.612-1.057 0.696-1.645l0.002-0.135-0.013-0.053z"></path>
<path fill="#2c2c2c" style="fill: var(--color4, #2c2c2c)" d="M24.67 15.892c0.137 0.581-0.009 1.131-0.438 1.651-0.431 0.513-0.985 0.85-1.663 1.010-0.671 0.159-1.266 0.117-1.786-0.127-0.522-0.25-0.819-0.531-0.893-0.843-0.050-0.212-0.012-0.334 0.115-0.364 0.113-0.027 0.376 0.091 0.788 0.352 0.156 0.090 0.352 0.163 0.589 0.22 0.244 0.054 0.486 0.053 0.726-0.004 0.494-0.117 0.902-0.348 1.223-0.693 0.328-0.347 0.457-0.669 0.387-0.966-0.045-0.191-0.23-0.405-0.555-0.643s-0.673-0.45-1.046-0.638c-0.367-0.197-0.714-0.418-1.040-0.662s-0.51-0.455-0.552-0.632-0.051-0.373-0.027-0.588c0.024-0.215 0.067-0.379 0.13-0.491 0.203-0.37 0.565-0.751 1.084-1.143 0.526-0.394 0.987-0.637 1.382-0.731 0.205-0.049 0.394-0.022 0.567 0.079s0.277 0.226 0.312 0.375c0.017 0.071-0.044 0.145-0.182 0.223s-0.351 0.188-0.638 0.33c-0.282 0.134-0.528 0.275-0.739 0.422-0.739 0.504-1.074 0.901-1.005 1.191 0.037 0.156 0.553 0.493 1.548 1.013 0.383 0.201 0.745 0.455 1.087 0.763 0.347 0.299 0.555 0.598 0.625 0.895z"></path>
<path fill="#2c2c2c" style="fill: var(--color4, #2c2c2c)" d="M27.104 16.426c0.032 0.135 0.125 0.183 0.281 0.147 0.268-0.064 0.576-0.215 0.922-0.454 0.352-0.248 0.549-0.377 0.591-0.387 0.127-0.030 0.207 0.022 0.238 0.157 0.049 0.205-0.107 0.493-0.467 0.862-0.353 0.368-0.703 0.593-1.049 0.674-0.339 0.080-0.643 0.055-0.913-0.076-0.271-0.138-0.43-0.306-0.477-0.504s-0.064-0.46-0.051-0.784c0.011-0.332 0.035-0.767 0.072-1.307 0.042-0.548 0.069-1 0.083-1.354-0.314 0.156-0.527 0.248-0.64 0.275s-0.239-0.003-0.379-0.090c-0.134-0.095-0.214-0.196-0.239-0.302-0.040-0.17 0.38-0.441 1.262-0.815-0.012-0.618-0.071-1.153-0.178-1.607-0.050-0.212-0.005-0.335 0.137-0.369 0.12-0.028 0.287 0.014 0.5 0.128 0.212 0.107 0.34 0.256 0.385 0.447s0.065 0.542 0.058 1.052c0.394-0.131 0.711-0.225 0.952-0.281 0.424-0.1 0.657-0.058 0.701 0.126 0.025 0.106-0.071 0.222-0.287 0.348-0.209 0.124-0.664 0.348-1.363 0.67-0.016 0.594-0.052 1.28-0.107 2.055-0.057 0.769-0.067 1.231-0.030 1.387z"></path>
<path fill="#2c2c2c" style="fill: var(--color4, #2c2c2c)" d="M31.839 10.864c0.318-0.075 0.649 0.018 0.995 0.28 0.344 0.255 0.547 0.514 0.608 0.776 0.060 0.255 0.034 0.538-0.079 0.849 0.11 0.086 0.174 0.168 0.192 0.246 0.047 0.198 0.081 0.549 0.103 1.052 0.029 0.502 0.051 0.829 0.065 0.983 0.021 0.152 0.035 0.276 0.043 0.371 0.006 0.088 0.008 0.177 0.007 0.267 0.014 0.184-0.029 0.287-0.128 0.311-0.127 0.030-0.259-0.055-0.396-0.254-0.131-0.208-0.246-0.488-0.344-0.838-0.44 0.949-0.928 1.487-1.464 1.614-0.325 0.077-0.679 0.015-1.062-0.186-0.378-0.21-0.602-0.463-0.672-0.761-0.1-0.425-0.069-0.986 0.095-1.682 0.162-0.704 0.432-1.358 0.811-1.964s0.787-0.96 1.225-1.064zM32.768 12.618c-0.156-0.659-0.364-0.957-0.626-0.895-0.275 0.065-0.55 0.34-0.823 0.823-0.275 0.476-0.481 0.992-0.619 1.548s-0.171 0.979-0.103 1.269c0.028 0.12 0.101 0.208 0.219 0.262 0.116 0.047 0.241 0.055 0.375 0.024 0.332-0.079 0.654-0.39 0.965-0.935 0.31-0.552 0.469-1.169 0.48-1.852-0.004-0.111 0.041-0.189 0.135-0.234l-0.002-0.011z"></path>
<path fill="#bbf330" style="fill: var(--color3, #bbf330)" d="M30.759 19.973c-0.303 0.075-0.542 0.306-0.642 0.602-1.906 5.65-7.244 9.719-13.535 9.719-3.815 0-7.279-1.497-9.841-3.935-0.226-0.215-0.543-0.307-0.845-0.232-0.639 0.158-0.88 0.934-0.406 1.392 2.874 2.774 6.784 4.48 11.092 4.48 7.078 0 13.081-4.605 15.182-10.986 0.206-0.626-0.368-1.199-1.006-1.041z"></path>
<path fill="#bbf330" style="fill: var(--color3, #bbf330)" d="M1.867 14.15c0.345-0.085 0.601-0.374 0.665-0.725 1.211-6.664 7.039-11.72 14.051-11.72 4.559 0 8.617 2.137 11.232 5.464 0.219 0.279 0.579 0.414 0.923 0.328 0.584-0.144 0.847-0.825 0.478-1.301-2.924-3.771-7.495-6.198-12.633-6.198-7.881 0-14.431 5.711-15.743 13.225-0.104 0.592 0.445 1.070 1.027 0.926z"></path>
<path fill="#bbf330" style="fill: var(--color3, #bbf330)" d="M40.615 5.331c-3.777 7.241-5.435 2.465-10.752 5.271 0.532-8.406 6.163-3.291 10.752-5.271z"></path>
</symbol>
<symbol id="icon-menu-close" viewBox="0 0 32 32">
<path d="M19.141 16.123l10.676-10.668c0.36-0.42 0.548-0.96 0.527-1.513s-0.251-1.077-0.642-1.467c-0.391-0.391-0.915-0.62-1.469-0.641s-1.093 0.167-1.514 0.526l-10.676 10.558-10.742-10.734c-0.42-0.36-0.961-0.548-1.514-0.526s-1.077 0.25-1.469 0.641c-0.391 0.391-0.62 0.915-0.642 1.467s0.167 1.093 0.527 1.513l10.72 10.844-10.501 10.361c-0.23 0.197-0.417 0.439-0.549 0.711s-0.206 0.569-0.218 0.871 0.039 0.604 0.15 0.885c0.11 0.282 0.278 0.538 0.492 0.751s0.47 0.381 0.752 0.492c0.282 0.11 0.584 0.161 0.886 0.15s0.599-0.086 0.872-0.217c0.273-0.132 0.515-0.318 0.712-0.548l10.479-10.471 10.413 10.405c0.42 0.359 0.961 0.547 1.514 0.526s1.077-0.25 1.469-0.641c0.391-0.391 0.621-0.915 0.642-1.467s-0.167-1.093-0.527-1.512l-10.369-10.295z"></path>
</symbol>
<symbol id="icon-order" viewBox="0 0 24 32">
<path  d="M11.587 0.368c2.231 0 4.138 0.779 5.72 2.336s2.372 3.451 2.372 5.683c0 1.275-0.276 2.477-0.828 3.605s-1.33 2.084-2.336 2.869h-1.251v-1.839c0.711-0.564 1.257-1.251 1.637-2.060s0.57-1.667 0.57-2.575c0-1.618-0.576-2.992-1.729-4.12s-2.538-1.692-4.156-1.692c-1.618 0-3.004 0.564-4.156 1.692s-1.729 2.501-1.729 4.12c0 0.907 0.19 1.766 0.57 2.575s0.926 1.496 1.637 2.060v2.648c-1.373-0.711-2.452-1.717-3.237-3.016s-1.177-2.722-1.177-4.267c0-2.231 0.791-4.126 2.372-5.683s3.488-2.336 5.72-2.336zM10.189 31.264c-0.417 0-0.809-0.080-1.177-0.239s-0.687-0.374-0.956-0.644l-7.577-7.577 2.060-2.133c0.343-0.343 0.73-0.607 1.159-0.791s0.877-0.215 1.343-0.092l2.869 0.662v-11.991c0-1.030 0.356-1.9 1.067-2.611s1.582-1.067 2.612-1.067c1.030 0 1.9 0.356 2.611 1.067s1.067 1.582 1.067 2.611v6.326h0.956c0.123 0 0.233 0.024 0.331 0.073s0.208 0.098 0.331 0.147l5.444 2.648c0.588 0.27 1.024 0.705 1.306 1.306s0.362 1.22 0.239 1.857l-1.324 8.018c-0.123 0.711-0.466 1.293-1.030 1.747s-1.202 0.68-1.913 0.68h-9.416zM9.895 29.057h10.336l1.582-9.159-6.731-3.347h-2.023v-8.092c0-0.441-0.135-0.797-0.405-1.067s-0.625-0.405-1.067-0.405-0.797 0.135-1.067 0.405c-0.27 0.27-0.405 0.625-0.405 1.067v14.676l-5.664-1.214-0.846 0.846 6.29 6.29zM20.23 29.057v0z"></path>
</symbol>
<symbol id="icon-right" viewBox="0 0 18 32">
<path d="M17.653 15.035l-14.861-14.16c-0.248-0.236-0.577-0.368-0.92-0.368s-0.672 0.132-0.92 0.368l-0.016 0.016c-0.121 0.115-0.217 0.253-0.282 0.405s-0.099 0.318-0.099 0.484c0 0.166 0.034 0.331 0.099 0.484s0.162 0.291 0.282 0.405l13.995 13.333-13.995 13.328c-0.121 0.115-0.217 0.252-0.282 0.405s-0.099 0.317-0.099 0.484 0.034 0.331 0.099 0.484c0.066 0.153 0.162 0.291 0.282 0.405l0.016 0.016c0.248 0.236 0.577 0.368 0.92 0.368s0.672-0.132 0.92-0.368l14.861-14.16c0.131-0.125 0.235-0.274 0.306-0.44s0.108-0.345 0.108-0.525c0-0.181-0.037-0.359-0.108-0.525s-0.175-0.316-0.306-0.44z"></path>
</symbol>
<symbol id="icon-star" viewBox="0 0 34 32">
<path fill="#ffe550" style="fill: var(--color1, #ffe550)" d="M15.421 1.037c0.584-1.383 2.575-1.383 3.159 0l3.449 8.164c0.247 0.583 0.804 0.982 1.443 1.032l8.952 0.707c1.517 0.12 2.132 1.983 0.976 2.958l-6.821 5.752c-0.487 0.411-0.7 1.056-0.551 1.67l2.084 8.6c0.353 1.457-1.257 2.609-2.556 1.828l-7.664-4.609c-0.547-0.329-1.236-0.329-1.783 0l-7.664 4.609c-1.299 0.781-2.909-0.371-2.556-1.828l2.084-8.6c0.149-0.614-0.064-1.259-0.551-1.67l-6.821-5.752c-1.156-0.975-0.541-2.838 0.976-2.958l8.952-0.707c0.639-0.050 1.196-0.449 1.443-1.032l3.449-8.164z"></path>
</symbol>
<symbol id="icon-top-pointer" viewBox="0 0 32 32">
<path d="M0 16c0 8.837 7.163 16 16 16s16-7.163 16-16-7.163-16-16-16-16 7.163-16 16zM29 16c0 7.18-5.82 13-13 13s-13-5.82-13-13 5.82-13 13-13 13 5.82 13 13z"></path>
<path d="M22.086 20.914l2.829-2.829-8.914-8.914-8.914 8.914 2.828 2.828 6.086-6.086z"></path>
</symbol>
<symbol id="icon-invalid" viewBox="0 0 32 32">
<path fill="none" stroke="#ff705d" style="stroke: var(--color1, #ff705d)" stroke-linejoin="round" stroke-linecap="round" stroke-miterlimit="4" stroke-width="2.2853" d="M16 11.429v6.856M16 26.285c0.017 0.001 0.036 0.001 0.055 0.001 0.632 0 1.144-0.512 1.144-1.144s-0.512-1.144-1.144-1.144c-0.019 0-0.039 0-0.058 0.001l0.003-0c-0.608 0.030-1.089 0.53-1.089 1.143s0.481 1.112 1.086 1.143l0.003 0z"></path>
<path fill="none" stroke="#ff705d" style="stroke: var(--color1, #ff705d)" stroke-linejoin="round" stroke-linecap="round" stroke-miterlimit="4" stroke-width="2.2853" d="M18.035 2.4c-0.387-0.743-1.152-1.242-2.033-1.242s-1.646 0.499-2.027 1.23l-0.006 0.013-12.573 25.141c-0.154 0.3-0.245 0.654-0.245 1.029 0 1.26 1.020 2.282 2.279 2.285h25.144c1.259-0.004 2.278-1.026 2.278-2.285 0-0.374-0.090-0.728-0.25-1.040l0.006 0.013-12.573-25.147z"></path>
</symbol>
<symbol id="icon-required" viewBox="0 0 98 32">
<path fill="#fe6060" style="fill: var(--color1, #fe6060)" d="M0 14.222c0-7.855 6.367-14.222 14.222-14.222h69.333c7.855 0 14.222 6.367 14.222 14.222s-6.367 14.222-14.222 14.222h-28c-2.603-0.028-4.063 1.213-6.667 3.556-2.603-2.343-4.063-3.583-6.667-3.556h-28c-7.855 0-14.222-6.367-14.222-14.222z"></path>
<path fill="#faedeb" style="fill: var(--color2, #faedeb)" d="M12.402 12.073l-1.762 5.112h-1.065l2.22-5.898h0.681l-0.073 0.786zM13.877 17.185l-1.766-5.112-0.077-0.786h0.684l2.228 5.898h-1.070zM13.791 14.998v0.806h-3.208v-0.806h3.208zM16.555 10.963v6.222h-0.981v-6.222h0.981zM18.669 10.963v6.222h-0.98v-6.222h0.98zM23.060 17.185h-0.98v-4.667c0-0.354 0.070-0.652 0.21-0.895 0.143-0.243 0.347-0.428 0.612-0.555 0.268-0.127 0.585-0.191 0.952-0.191 0.216 0 0.424 0.024 0.624 0.069 0.202 0.046 0.412 0.104 0.628 0.174l-0.151 0.794c-0.11-0.039-0.263-0.084-0.418-0.122l-0.039-0.008c-0.164-0.041-0.352-0.065-0.546-0.065-0.012 0-0.024 0-0.036 0l0.002-0c-0.294 0-0.511 0.068-0.652 0.203-0.138 0.132-0.207 0.331-0.207 0.596v4.667zM23.939 12.802v0.713h-2.532v-0.713h2.532zM25.567 12.802v4.383h-0.976v-4.383h0.977zM28.59 17.266c-0.010 0-0.021 0-0.033 0-0.304 0-0.595-0.058-0.862-0.164l0.016 0.006c-0.26-0.108-0.481-0.26-0.664-0.449l-0.001-0.001c-0.178-0.189-0.319-0.414-0.413-0.662l-0.005-0.014c-0.093-0.244-0.146-0.526-0.146-0.82 0-0.006 0-0.013 0-0.019v0.001-0.162c0-0.343 0.050-0.654 0.15-0.932s0.239-0.516 0.418-0.713c0.178-0.2 0.389-0.353 0.632-0.458s0.506-0.158 0.79-0.158c0.313 0 0.587 0.053 0.823 0.158s0.429 0.254 0.583 0.446c0.156 0.19 0.273 0.415 0.348 0.677 0.078 0.262 0.117 0.551 0.117 0.867v0.417h-3.387v-0.702h2.423v-0.077c-0.005-0.179-0.043-0.349-0.109-0.503l0.003 0.009c-0.061-0.152-0.16-0.278-0.285-0.37l-0.002-0.002c-0.13-0.095-0.302-0.142-0.519-0.142-0.162 0-0.306 0.036-0.433 0.105-0.124 0.068-0.229 0.166-0.312 0.296-0.085 0.135-0.152 0.292-0.192 0.459l-0.002 0.011c-0.043 0.181-0.065 0.385-0.065 0.612v0.162c0 0.191 0.026 0.37 0.077 0.535 0.055 0.162 0.133 0.304 0.235 0.425s0.227 0.217 0.373 0.287c0.146 0.068 0.312 0.101 0.498 0.101 0.235 0 0.444-0.047 0.628-0.142s0.344-0.228 0.478-0.401l0.514 0.498c-0.095 0.138-0.217 0.271-0.369 0.397-0.151 0.124-0.336 0.226-0.555 0.305-0.212 0.075-0.457 0.118-0.711 0.118-0.015 0-0.030-0-0.044-0l0.002 0zM32.151 10.963v6.222h-0.98v-6.222h0.98zM35.893 16.278v-5.315h0.981v6.222h-0.888l-0.093-0.907zM33.042 15.042v-0.085c0-0.332 0.039-0.634 0.117-0.907 0.078-0.276 0.192-0.512 0.34-0.709 0.148-0.2 0.329-0.353 0.543-0.458 0.213-0.108 0.454-0.162 0.721-0.162 0.265 0 0.497 0.051 0.697 0.154s0.37 0.249 0.51 0.441c0.14 0.189 0.252 0.415 0.337 0.68 0.083 0.262 0.143 0.553 0.178 0.875v0.271c-0.034 0.32-0.097 0.611-0.186 0.89l0.009-0.031c-0.084 0.259-0.196 0.484-0.337 0.673-0.135 0.183-0.307 0.331-0.506 0.434l-0.008 0.004c-0.2 0.103-0.433 0.154-0.701 0.154-0.264 0-0.504-0.056-0.717-0.166-0.216-0.116-0.396-0.273-0.536-0.462l-0.003-0.004c-0.148-0.201-0.264-0.436-0.336-0.69l-0.004-0.015c-0.075-0.258-0.117-0.553-0.117-0.859 0-0.010 0-0.019 0-0.029v0.001zM34.018 14.957v0.085c0 0.2 0.018 0.386 0.053 0.559 0.037 0.173 0.095 0.326 0.174 0.458 0.078 0.129 0.18 0.232 0.304 0.308 0.127 0.072 0.279 0.109 0.453 0.109 0.222 0 0.404-0.049 0.547-0.146 0.144-0.099 0.259-0.232 0.334-0.387l0.003-0.006c0.083-0.168 0.14-0.354 0.17-0.559v-0.733c-0.016-0.164-0.052-0.316-0.105-0.458l0.004 0.012c-0.048-0.138-0.115-0.258-0.2-0.363l0.002 0.002c-0.082-0.103-0.187-0.186-0.306-0.241l-0.005-0.002c-0.12-0.057-0.261-0.090-0.409-0.090-0.009 0-0.017 0-0.026 0l0.001-0c-0.178 0-0.329 0.038-0.453 0.113s-0.227 0.18-0.308 0.312c-0.078 0.132-0.136 0.286-0.174 0.462-0.036 0.165-0.057 0.354-0.057 0.549 0 0.005 0 0.010 0 0.015v-0.001zM40.354 15.998c0-0.002 0-0.004 0-0.006 0-0.095-0.027-0.184-0.074-0.259l0.001 0.002c-0.049-0.081-0.142-0.154-0.28-0.219-0.135-0.065-0.335-0.124-0.6-0.178-0.254-0.055-0.468-0.118-0.676-0.194l0.036 0.011c-0.189-0.070-0.352-0.159-0.5-0.267l0.006 0.004c-0.132-0.097-0.239-0.218-0.317-0.359l-0.003-0.006c-0.071-0.135-0.113-0.295-0.113-0.465 0-0.007 0-0.015 0-0.022l-0 0.001c0-0.179 0.039-0.347 0.117-0.507s0.19-0.3 0.336-0.421c0.15-0.123 0.327-0.221 0.519-0.284l0.012-0.003c0.202-0.067 0.435-0.106 0.677-0.106 0.010 0 0.020 0 0.030 0l-0.002-0c0.367 0 0.681 0.062 0.943 0.186 0.265 0.121 0.467 0.288 0.608 0.498 0.14 0.208 0.21 0.443 0.21 0.705h-0.976c0-0.116-0.030-0.225-0.089-0.324-0.061-0.106-0.15-0.191-0.256-0.245l-0.004-0.002c-0.116-0.065-0.262-0.097-0.438-0.097-0.167 0-0.306 0.027-0.417 0.081-0.1 0.045-0.183 0.114-0.242 0.201l-0.001 0.002c-0.049 0.077-0.078 0.172-0.078 0.273 0 0.073 0.015 0.142 0.042 0.205l-0.001-0.003c0.037 0.064 0.086 0.117 0.145 0.157l0.002 0.001c0.068 0.046 0.159 0.089 0.276 0.129 0.119 0.041 0.267 0.080 0.445 0.117 0.335 0.071 0.622 0.161 0.863 0.272 0.243 0.108 0.429 0.248 0.559 0.421 0.13 0.171 0.194 0.386 0.194 0.648 0 0.194-0.041 0.373-0.126 0.535-0.088 0.168-0.208 0.308-0.353 0.415l-0.003 0.002c-0.161 0.117-0.348 0.21-0.55 0.268l-0.013 0.003c-0.209 0.062-0.448 0.097-0.696 0.097-0.012 0-0.023-0-0.035-0l0.002 0c-0.397 0-0.733-0.071-1.009-0.211-0.276-0.143-0.485-0.325-0.628-0.547-0.13-0.196-0.208-0.437-0.21-0.696v-0.001h0.943c0.011 0.181 0.061 0.325 0.15 0.433 0.092 0.105 0.206 0.183 0.341 0.231 0.137 0.046 0.279 0.069 0.425 0.069 0.176 0 0.323-0.023 0.441-0.069 0.119-0.049 0.21-0.114 0.272-0.194 0.058-0.077 0.093-0.174 0.093-0.279 0-0.002 0-0.004-0-0.005v0zM46.702 16.306v-2.091c0-0.156-0.028-0.292-0.085-0.405s-0.147-0.205-0.256-0.262l-0.003-0.002c-0.113-0.062-0.256-0.093-0.429-0.093-0.007-0-0.015-0-0.024-0-0.141 0-0.275 0.030-0.396 0.084l0.006-0.002c-0.11 0.049-0.202 0.124-0.27 0.217l-0.001 0.002c-0.061 0.085-0.097 0.191-0.097 0.305 0 0.002 0 0.005 0 0.007v-0h-0.972c0-0.172 0.041-0.34 0.126-0.502s0.205-0.307 0.364-0.434 0.35-0.227 0.571-0.3c0.213-0.069 0.458-0.109 0.712-0.109 0.012 0 0.023 0 0.035 0l-0.002-0c0.329 0 0.621 0.055 0.875 0.166 0.257 0.111 0.458 0.279 0.604 0.503 0.148 0.221 0.223 0.5 0.223 0.834v1.948c0 0.2 0.014 0.379 0.040 0.539 0.030 0.156 0.072 0.293 0.126 0.409v0.065h-1c-0.049-0.116-0.087-0.251-0.108-0.392l-0.001-0.010c-0.023-0.143-0.036-0.309-0.036-0.477v-0zM46.843 14.52l0.008 0.603h-0.7c-0.181 0-0.34 0.018-0.478 0.053-0.13 0.028-0.246 0.079-0.347 0.147l0.003-0.002c-0.092 0.065-0.161 0.143-0.207 0.235-0.043 0.088-0.069 0.191-0.069 0.3 0 0.004 0 0.008 0 0.012v-0.001c0 0.116 0.027 0.223 0.081 0.32 0.054 0.095 0.132 0.169 0.235 0.223 0.105 0.054 0.232 0.081 0.38 0.081 0.2 0 0.374-0.040 0.523-0.121 0.151-0.084 0.27-0.185 0.357-0.304 0.086-0.121 0.132-0.236 0.137-0.344l0.316 0.433c-0.043 0.136-0.099 0.254-0.169 0.363l0.004-0.006c-0.078 0.127-0.181 0.249-0.308 0.365-0.27 0.241-0.627 0.389-1.020 0.389-0.010 0-0.020-0-0.031-0l0.002 0c-0.286 0-0.542-0.057-0.766-0.17-0.217-0.11-0.394-0.268-0.524-0.461l-0.003-0.005c-0.119-0.184-0.19-0.409-0.19-0.651 0-0.006 0-0.012 0-0.018v0.001c0-0.232 0.043-0.438 0.13-0.616 0.089-0.181 0.219-0.332 0.389-0.453 0.173-0.121 0.383-0.213 0.632-0.276 0.249-0.065 0.532-0.097 0.851-0.097h0.766zM49.683 13.637v3.548h-0.977v-4.383h0.932l0.044 0.834zM51.024 12.774l-0.008 0.907c-0.119-0.020-0.256-0.032-0.397-0.033h-0c-0.168 0.001-0.315 0.025-0.441 0.073-0.126 0.044-0.233 0.114-0.32 0.203l-0 0c-0.084 0.087-0.148 0.192-0.194 0.316s-0.073 0.264-0.081 0.417l-0.223 0.017c0-0.276 0.027-0.531 0.081-0.766 0.052-0.234 0.136-0.441 0.248-0.629l-0.005 0.009c0.111-0.178 0.249-0.318 0.413-0.417 0.16-0.094 0.352-0.15 0.557-0.15 0.008 0 0.016 0 0.024 0l-0.001-0c0.059 0 0.123 0.005 0.19 0.016 0.071 0.011 0.123 0.023 0.159 0.037zM53.487 17.266c-0.010 0-0.023 0-0.035 0-0.304 0-0.594-0.058-0.86-0.163l0.016 0.006c-0.26-0.108-0.48-0.26-0.663-0.449l-0.001-0.001c-0.178-0.189-0.32-0.414-0.413-0.662l-0.005-0.014c-0.092-0.243-0.146-0.525-0.146-0.818 0-0.007 0-0.014 0-0.021v0.001-0.162c0-0.343 0.050-0.654 0.15-0.932s0.239-0.516 0.417-0.713c0.178-0.2 0.389-0.353 0.632-0.458s0.506-0.158 0.79-0.158c0.313 0 0.587 0.053 0.822 0.158s0.43 0.254 0.584 0.446c0.156 0.19 0.273 0.415 0.348 0.677 0.079 0.262 0.118 0.551 0.118 0.867v0.417h-3.387v-0.702h2.423v-0.077c-0.005-0.179-0.043-0.349-0.109-0.503l0.003 0.009c-0.061-0.152-0.16-0.278-0.285-0.37l-0.002-0.002c-0.13-0.095-0.302-0.142-0.519-0.142-0.162 0-0.306 0.036-0.434 0.105-0.124 0.068-0.228 0.166-0.312 0.296-0.084 0.129-0.148 0.286-0.194 0.469-0.043 0.181-0.065 0.385-0.065 0.612v0.162c0 0.191 0.026 0.37 0.077 0.535 0.054 0.162 0.133 0.304 0.235 0.425s0.227 0.217 0.373 0.287c0.146 0.068 0.312 0.101 0.498 0.101 0.235 0 0.444-0.047 0.628-0.142s0.343-0.228 0.478-0.401l0.514 0.498c-0.095 0.138-0.217 0.271-0.369 0.397-0.151 0.124-0.337 0.226-0.555 0.305-0.212 0.075-0.457 0.118-0.711 0.118-0.015 0-0.029-0-0.044-0l0.002 0zM59.048 13.637v3.548h-0.976v-4.383h0.932l0.044 0.834zM60.389 12.774l-0.008 0.907c-0.119-0.020-0.257-0.032-0.397-0.033h-0c-0.168 0.001-0.315 0.025-0.441 0.073-0.243 0.086-0.431 0.274-0.513 0.513l-0.002 0.006c-0.046 0.124-0.073 0.264-0.081 0.417l-0.223 0.017c0-0.276 0.027-0.531 0.081-0.766s0.135-0.441 0.243-0.62c0.111-0.178 0.249-0.318 0.414-0.417 0.167-0.1 0.36-0.15 0.579-0.15 0.060 0 0.123 0.005 0.191 0.016 0.070 0.011 0.123 0.023 0.158 0.037zM62.852 17.266c-0.010 0-0.022 0-0.034 0-0.304 0-0.594-0.058-0.86-0.163l0.016 0.006c-0.26-0.108-0.481-0.26-0.664-0.449l-0.001-0.001c-0.178-0.189-0.319-0.414-0.413-0.662l-0.005-0.014c-0.092-0.243-0.146-0.525-0.146-0.819 0-0.007 0-0.014 0-0.021v0.001-0.162c0-0.343 0.050-0.654 0.15-0.932s0.239-0.516 0.417-0.713c0.172-0.194 0.382-0.349 0.62-0.454l0.011-0.005c0.243-0.105 0.507-0.158 0.79-0.158 0.313 0 0.587 0.053 0.823 0.158s0.43 0.254 0.583 0.446c0.157 0.19 0.273 0.415 0.348 0.677 0.078 0.262 0.117 0.551 0.117 0.867v0.417h-3.386v-0.702h2.422v-0.077c-0.004-0.179-0.043-0.349-0.108-0.503l0.003 0.009c-0.061-0.152-0.16-0.278-0.286-0.37l-0.002-0.002c-0.129-0.095-0.302-0.142-0.519-0.142-0.162 0-0.306 0.036-0.433 0.105-0.124 0.068-0.228 0.166-0.312 0.296-0.086 0.135-0.153 0.292-0.193 0.459l-0.002 0.011c-0.043 0.181-0.065 0.385-0.065 0.612v0.162c0 0.191 0.025 0.37 0.077 0.535 0.054 0.162 0.132 0.304 0.235 0.425s0.227 0.217 0.373 0.287c0.146 0.068 0.312 0.101 0.498 0.101 0.235 0 0.444-0.047 0.628-0.142s0.343-0.228 0.478-0.401l0.515 0.498c-0.095 0.138-0.217 0.271-0.369 0.397-0.151 0.124-0.336 0.226-0.555 0.305-0.212 0.075-0.457 0.118-0.712 0.118-0.015 0-0.030-0-0.044-0l0.002 0zM68.037 18.871v-5.197l0.114-0.871h0.871v6.068h-0.985zM65.19 15.038v-0.085c0-0.332 0.038-0.634 0.113-0.907 0.071-0.271 0.187-0.508 0.341-0.715l-0.004 0.006c0.148-0.197 0.329-0.348 0.543-0.454 0.213-0.108 0.459-0.162 0.737-0.162 0.27 0 0.505 0.051 0.705 0.154 0.203 0.103 0.373 0.249 0.511 0.441 0.14 0.189 0.252 0.415 0.336 0.676s0.145 0.553 0.183 0.875v0.271c-0.034 0.32-0.097 0.611-0.187 0.891l0.009-0.031c-0.081 0.256-0.196 0.48-0.341 0.679l0.005-0.007c-0.136 0.184-0.308 0.332-0.506 0.438l-0.008 0.004c-0.203 0.103-0.44 0.154-0.713 0.154s-0.516-0.056-0.729-0.166c-0.218-0.115-0.4-0.272-0.54-0.462l-0.003-0.004c-0.145-0.203-0.26-0.439-0.333-0.693l-0.004-0.016c-0.072-0.258-0.113-0.555-0.113-0.861 0-0.009 0-0.019 0-0.028v0.001zM66.166 14.953v0.085c0 0.2 0.018 0.388 0.053 0.563 0.038 0.173 0.097 0.327 0.178 0.462 0.081 0.132 0.184 0.236 0.308 0.312s0.274 0.113 0.45 0.113c0.23 0 0.417-0.050 0.563-0.15 0.149-0.1 0.262-0.233 0.341-0.401 0.081-0.17 0.137-0.357 0.17-0.563v-0.733c-0.019-0.166-0.055-0.317-0.106-0.46l0.004 0.014c-0.048-0.14-0.117-0.261-0.204-0.366l0.001 0.002c-0.083-0.104-0.189-0.187-0.311-0.241l-0.005-0.002c-0.124-0.059-0.273-0.089-0.446-0.089-0.007-0-0.016-0-0.025-0-0.158 0-0.306 0.042-0.433 0.115l0.004-0.002c-0.129 0.079-0.234 0.186-0.309 0.312l-0.002 0.004c-0.078 0.133-0.138 0.288-0.172 0.452l-0.002 0.010c-0.036 0.165-0.057 0.354-0.057 0.548 0 0.005 0 0.011 0 0.016v-0.001zM72.704 16.152v-3.351h0.981v4.383h-0.924l-0.057-1.033zM72.842 15.241l0.328-0.008c0 0.295-0.033 0.566-0.097 0.814-0.065 0.246-0.165 0.46-0.3 0.644-0.136 0.18-0.31 0.324-0.51 0.422l-0.008 0.004c-0.211 0.1-0.463 0.15-0.758 0.15-0.213 0-0.409-0.031-0.587-0.093-0.181-0.063-0.335-0.161-0.462-0.288v0c-0.132-0.14-0.233-0.309-0.293-0.497l-0.003-0.009c-0.071-0.208-0.105-0.456-0.105-0.745v-2.832h0.977v2.84c0 0.16 0.018 0.293 0.056 0.401 0.038 0.105 0.089 0.191 0.154 0.255 0.065 0.065 0.14 0.111 0.227 0.138s0.178 0.041 0.276 0.041c0.278 0 0.497-0.054 0.656-0.162 0.158-0.107 0.278-0.26 0.342-0.439l0.002-0.006c0.071-0.186 0.105-0.395 0.105-0.628zM75.73 12.802v4.383h-0.98v-4.383h0.98zM74.685 11.652c0-0.149 0.049-0.272 0.146-0.369 0.1-0.1 0.238-0.15 0.414-0.15 0.172 0 0.309 0.050 0.409 0.15 0.093 0.090 0.15 0.215 0.15 0.354 0 0.005-0 0.010-0 0.016l0-0.001c0 0.004 0 0.008 0 0.013 0 0.138-0.058 0.263-0.15 0.352l-0 0c-0.1 0.097-0.236 0.146-0.409 0.146-0.176 0-0.313-0.049-0.414-0.146-0.090-0.090-0.146-0.214-0.146-0.351 0-0.005 0-0.009 0-0.014v0.001zM77.78 13.637v3.548h-0.977v-4.383h0.932l0.044 0.834zM79.121 12.774l-0.008 0.907c-0.119-0.020-0.256-0.032-0.397-0.033h-0.001c-0.168 0.001-0.315 0.025-0.441 0.073-0.126 0.044-0.233 0.114-0.32 0.203l-0 0c-0.084 0.088-0.15 0.193-0.192 0.31l-0.002 0.006c-0.046 0.124-0.073 0.264-0.081 0.417l-0.223 0.017c0-0.276 0.027-0.531 0.081-0.766s0.135-0.441 0.243-0.62c0.111-0.178 0.248-0.318 0.413-0.417 0.168-0.1 0.361-0.15 0.58-0.15 0.059 0 0.123 0.005 0.19 0.016 0.070 0.011 0.123 0.023 0.158 0.037zM81.584 17.266c-0.010 0-0.022 0-0.034 0-0.304 0-0.594-0.058-0.861-0.163l0.016 0.006c-0.26-0.108-0.481-0.26-0.664-0.449l-0.001-0.001c-0.177-0.189-0.319-0.414-0.413-0.662l-0.005-0.014c-0.092-0.243-0.146-0.525-0.146-0.819 0-0.007 0-0.014 0-0.021v0.001-0.162c0-0.343 0.050-0.654 0.15-0.932s0.239-0.516 0.417-0.713c0.172-0.194 0.383-0.349 0.621-0.454l0.011-0.005c0.243-0.105 0.506-0.158 0.79-0.158 0.313 0 0.587 0.053 0.822 0.158s0.43 0.254 0.584 0.446c0.156 0.19 0.273 0.415 0.348 0.677 0.078 0.262 0.117 0.551 0.117 0.867v0.417h-3.387v-0.702h2.423v-0.077c-0.004-0.179-0.043-0.349-0.109-0.503l0.003 0.009c-0.061-0.152-0.16-0.278-0.285-0.37l-0.002-0.002c-0.13-0.095-0.303-0.142-0.519-0.142-0.162 0-0.306 0.036-0.434 0.105-0.129 0.072-0.234 0.172-0.31 0.293l-0.002 0.004c-0.085 0.135-0.152 0.292-0.192 0.459l-0.002 0.011c-0.042 0.175-0.065 0.377-0.065 0.583 0 0.010 0 0.020 0 0.030v-0.002 0.162c0 0.191 0.026 0.37 0.077 0.535 0.054 0.162 0.133 0.304 0.235 0.425s0.227 0.217 0.373 0.287c0.146 0.068 0.312 0.101 0.498 0.101 0.235 0 0.444-0.047 0.628-0.142s0.343-0.228 0.478-0.401l0.514 0.498c-0.095 0.138-0.217 0.271-0.369 0.397-0.151 0.124-0.337 0.226-0.555 0.305-0.212 0.075-0.456 0.118-0.711 0.118-0.015 0-0.030-0-0.044-0l0.002 0zM86.773 16.278v-5.315h0.98v6.222h-0.887l-0.093-0.907zM83.921 15.042v-0.085c0-0.332 0.039-0.634 0.117-0.907 0.079-0.276 0.192-0.512 0.341-0.709 0.148-0.2 0.329-0.353 0.543-0.458 0.213-0.108 0.453-0.162 0.721-0.162 0.265 0 0.497 0.051 0.697 0.154s0.37 0.249 0.511 0.441c0.14 0.189 0.252 0.415 0.336 0.68 0.084 0.262 0.143 0.553 0.178 0.875v0.271c-0.035 0.32-0.097 0.611-0.187 0.89l0.009-0.031c-0.084 0.259-0.196 0.484-0.336 0.673-0.135 0.183-0.308 0.331-0.507 0.434l-0.008 0.004c-0.2 0.103-0.433 0.154-0.7 0.154-0.265 0-0.504-0.056-0.717-0.166-0.216-0.116-0.397-0.273-0.536-0.462l-0.003-0.004c-0.148-0.201-0.265-0.436-0.337-0.69l-0.004-0.015c-0.075-0.258-0.117-0.554-0.117-0.86 0-0.009 0-0.019 0-0.028v0.001zM84.898 14.957v0.085c0 0.2 0.017 0.386 0.053 0.559 0.037 0.173 0.095 0.326 0.174 0.458 0.079 0.129 0.18 0.232 0.304 0.308 0.127 0.072 0.279 0.109 0.454 0.109 0.221 0 0.404-0.049 0.547-0.146s0.255-0.229 0.336-0.393c0.084-0.168 0.14-0.354 0.17-0.559v-0.733c-0.016-0.164-0.052-0.315-0.105-0.458l0.004 0.012c-0.048-0.138-0.115-0.258-0.2-0.363l0.002 0.002c-0.082-0.104-0.187-0.186-0.306-0.241l-0.005-0.002c-0.12-0.057-0.261-0.090-0.409-0.090-0.009 0-0.017 0-0.026 0l0.001-0c-0.178 0-0.329 0.038-0.453 0.113s-0.227 0.18-0.308 0.312c-0.078 0.133-0.138 0.288-0.172 0.452l-0.002 0.010c-0.036 0.165-0.056 0.355-0.056 0.549 0 0.005 0 0.010 0 0.015v-0.001z"></path>
</symbol>
</defs>
</svg>
